<svg width="215" height="173" viewBox="0 0 215 173" fill="none" xmlns="http://www.w3.org/2000/svg">
<rect width="215" height="173" fill="white"/>
<path d="M72.7 117H105.7M99.1 136.8H132.1M132.1 117H151.9M158.5 64.2C158.5 82.4254 143.725 97.2 125.5 97.2C117.491 97.2 105.7 97.2 105.7 97.2C105.7 97.2 93.1219 97.2 85.9 97.2C71.3197 97.2 59.5 85.3803 59.5 70.8C59.5 56.2197 71.3197 44.4 85.9 44.4C89.9958 44.4 93.8737 45.3327 97.333 46.9973C103.132 37.5224 113.578 31.2 125.5 31.2C143.725 31.2 158.5 45.9746 158.5 64.2Z" stroke="url(#paint0_linear_40_130)" stroke-width="6" stroke-linecap="round" stroke-linejoin="round"/>
<path d="M86.082 81.372C83.8293 81.372 81.7937 80.8863 79.975 79.915C78.177 78.9437 76.7613 77.6107 75.728 75.916C74.7153 74.2007 74.209 72.2787 74.209 70.15C74.209 68.0213 74.7153 66.1097 75.728 64.415C76.7613 62.6997 78.177 61.3563 79.975 60.385C81.7937 59.4137 83.8293 58.928 86.082 58.928C88.3347 58.928 90.36 59.4137 92.158 60.385C93.956 61.3563 95.3717 62.6997 96.405 64.415C97.4383 66.1097 97.955 68.0213 97.955 70.15C97.955 72.2787 97.4383 74.2007 96.405 75.916C95.3717 77.6107 93.956 78.9437 92.158 79.915C90.36 80.8863 88.3347 81.372 86.082 81.372ZM86.082 77.094C87.3633 77.094 88.5207 76.8047 89.554 76.226C90.5873 75.6267 91.3933 74.8 91.972 73.746C92.5713 72.692 92.871 71.4933 92.871 70.15C92.871 68.8067 92.5713 67.608 91.972 66.554C91.3933 65.5 90.5873 64.6837 89.554 64.105C88.5207 63.5057 87.3633 63.206 86.082 63.206C84.8007 63.206 83.6433 63.5057 82.61 64.105C81.5767 64.6837 80.7603 65.5 80.161 66.554C79.5823 67.608 79.293 68.8067 79.293 70.15C79.293 71.4933 79.5823 72.692 80.161 73.746C80.7603 74.8 81.5767 75.6267 82.61 76.226C83.6433 76.8047 84.8007 77.094 86.082 77.094ZM105.922 63.392H98.9775V59.3H117.888V63.392H110.944V81H105.922V63.392ZM133.791 76.35H123.716L121.794 81H116.648L126.32 59.3H131.28L140.983 81H135.713L133.791 76.35ZM132.21 72.537L128.769 64.229L125.328 72.537H132.21Z" fill="url(#paint1_linear_40_130)"/>
<defs>
<linearGradient id="paint0_linear_40_130" x1="109" y1="31.2" x2="109" y2="195.5" gradientUnits="userSpaceOnUse">
<stop offset="0.5" stop-color="#6B46C1"/>
<stop offset="1" stop-color="#6B46C1" stop-opacity="0"/>
</linearGradient>
<linearGradient id="paint1_linear_40_130" x1="107" y1="51" x2="107" y2="99" gradientUnits="userSpaceOnUse">
<stop offset="0.208333" stop-color="#6B46C1"/>
<stop offset="0.822917" stop-color="#FD5858"/>
<stop offset="1" stop-color="#6B46C1" stop-opacity="0"/>
</linearGradient>
</defs>
</svg>
