<svg width="127" height="127" viewBox="0 0 127 127" fill="none" xmlns="http://www.w3.org/2000/svg">
<path d="M77.1037 110.687C69.5156 112.474 61.6203 112.412 54.0771 110.51C53.6935 110.413 53.4668 110.02 53.5692 109.638V109.638C53.6716 109.255 54.0643 109.029 54.4479 109.126C61.7648 110.968 69.4222 111.026 76.782 109.293C84.3746 107.504 91.4161 103.863 97.2828 98.6913C103.15 93.5199 107.66 86.9781 110.416 79.6454C113.171 72.3126 114.086 64.4152 113.079 56.6527C112.073 48.8902 109.176 41.5022 104.645 35.1431C100.114 28.784 94.0887 23.6501 87.1034 20.1962C80.1182 16.7423 72.3882 15.075 64.5983 15.3419C57.0472 15.6007 49.6657 17.6692 43.0677 21.3704C42.7223 21.5642 42.2836 21.4471 42.0865 21.1035V21.1035C41.8909 20.7627 42.0072 20.3273 42.3498 20.1349C49.1528 16.3132 56.7656 14.1775 64.5536 13.9106C72.5778 13.6357 80.5402 15.3532 87.7356 18.9109C94.9309 22.4687 101.137 27.757 105.804 34.3073C110.472 40.8576 113.456 48.4678 114.493 56.4638C115.53 64.4598 114.587 72.5947 111.749 80.148C108.911 87.7013 104.264 94.4398 98.2211 99.7667C92.1779 105.094 84.9246 108.844 77.1037 110.687Z" stroke="#364152" stroke-linecap="round" stroke-linejoin="round" stroke-dasharray="10 10"/>
<path d="M76.1162 16.3231C76.5528 14.6936 75.587 13.0091 73.9345 12.67C66.6338 11.1717 59.0804 11.2749 51.7949 12.9878C43.5155 14.9343 35.8377 18.8994 29.4414 24.5319C23.0451 30.1644 18.1279 37.2904 15.1252 45.2786C12.1225 53.2669 11.1272 61.8709 12.2272 70.3285C13.3273 78.7861 16.4888 86.8362 21.4318 93.7658C26.3748 100.695 32.9467 106.29 40.5653 110.056C48.1839 113.821 56.6141 115.64 65.1091 115.351C72.5932 115.097 79.9241 113.214 86.5993 109.847C88.0975 109.091 88.5914 107.225 87.7556 105.77C86.9145 104.306 85.0473 103.815 83.5334 104.562C77.7365 107.425 71.3916 109.027 64.9167 109.247C57.4218 109.502 49.984 107.897 43.2623 104.575C36.5405 101.253 30.7423 96.3167 26.3812 90.2029C22.0201 84.089 19.2307 76.9866 18.2602 69.5246C17.2896 62.0627 18.1678 54.4716 20.817 47.4237C23.4662 40.3758 27.8046 34.0887 33.4479 29.1193C39.0912 24.1499 45.8652 20.6515 53.1699 18.9342C59.4806 17.4505 66.019 17.3356 72.3506 18.5829C74.0058 18.9089 75.6796 17.9526 76.1162 16.3231Z" fill="#6B46C1"/>
<path d="M94.8 71L93.7 70.4001C93.3 70.2001 93.1 69.8001 93.2 69.4001C93.5 67.5001 93.7 60.9 83.5 57.9C83.3 57.8 83.1 57.8 82.9 57.8L63.3 57.9C62.9 57.9 62.5 58.0001 62.2 58.2001L51.9 65.1C51.7 65.2 51.5 65.3 51.3 65.3C49.4 65.2 47.6 65.4001 45.7 65.7001C40.3 66.8001 38.1 69.7001 37.3 71.2001C37.1 71.5001 37.1 71.9001 37.1 72.2001C37.2 74.6 35.6 77.3 38 79.5L57.4 79.4001L77.8 78.9001L93.9 78.7001C94.8 78.6 96.3 77.3 96.7 76.5C98.4 73.8 95 71.1 94.8 71Z" fill="#6B46C1"/>
<path d="M47.3 73.4C45.1 73.4 43.3 75.2 43.3 77.4C43.3 79.6 45.1 81.4 47.3 81.4C49.5 81.4 51.3 79.6 51.3 77.4C51.3 75.2 49.5 73.4 47.3 73.4ZM87.1 73.4C84.9 73.4 83.1 75.2 83.1 77.4C83.1 79.6 84.9 81.4 87.1 81.4C89.3 81.4 91.1 79.6 91.1 77.4C91.1 75.2 89.3 73.4 87.1 73.4Z" fill="white"/>
<path d="M86.1 66.3V62C86.1 61.1 85.3 60.3 84.4 60.3H63.2C63.1 60.3 63 60.3001 63 60.4001L55 66.1C54.8 66.2 54.8 66.5001 54.9 66.7001C55 66.8001 55.1 66.9001 55.2 66.9001C60.8 66.9001 82.4 66.7 85.6 66.8C85.9 66.8 86.1 66.6 86.1 66.3C86.1 66.4 86.1 66.4 86.1 66.3Z" fill="#E7F0FD"/>
<path d="M38.9 67.5L42.9 69.1L40.8 72L35.8 72.1L38.9 67.5Z" fill="#FCEA2B"/>
<path d="M77.6 78L57 78.4M38.1 78.4C37.2 78.2 36.4 77.9 36.3 77.4C36.2 76.4 36 73.6 36 72.3C36 71.8 36.1 71.2 36.4 70.8C37.5 68.8 41.2 64 51.3 64.4L61.6 57.5C62.1 57.2 62.7 57 63.2 57L82.8 56.9C83.1 56.9 83.4 56.9 83.7 57C85.9 57.6 95.4 61 94.1 69.6L95.2 70.2C95.7 70.4 96.1 70.9 96.2 71.4C96.6 72.8 96.5 74.3 96 75.7" stroke="black" stroke-width="2" stroke-linecap="round" stroke-linejoin="round"/>
<path d="M54.9 66.9L85.1 66.7V62.2" stroke="black" stroke-width="2" stroke-linecap="round" stroke-linejoin="round"/>
<path d="M47.3 82.4C50.0614 82.4 52.3 80.1614 52.3 77.4C52.3 74.6386 50.0614 72.4 47.3 72.4C44.5386 72.4 42.3 74.6386 42.3 77.4C42.3 80.1614 44.5386 82.4 47.3 82.4Z" stroke="black" stroke-width="2" stroke-linecap="round" stroke-linejoin="round"/>
<path d="M87.1 82.4C89.8614 82.4 92.1 80.1614 92.1 77.4C92.1 74.6386 89.8614 72.4 87.1 72.4C84.3386 72.4 82.1 74.6386 82.1 77.4C82.1 80.1614 84.3386 82.4 87.1 82.4Z" stroke="black" stroke-width="2" stroke-linecap="round" stroke-linejoin="round"/>
<path d="M42.3 69.8999L40.5 72.0999L36.8 71.9999M48.267 54.8629C49.953 50.1629 53.876 46.3609 59.082 45.0519C61.2989 44.4919 63.6124 44.4303 65.8559 44.8716C68.0995 45.3129 70.2173 46.246 72.057 47.6039" stroke="black" stroke-width="2" stroke-linecap="round" stroke-linejoin="round"/>
<path d="M44.182 53.854C46.138 47.848 51.044 42.949 57.622 41.294C63.559 39.801 69.548 41.281 74.015 44.794" stroke="black" stroke-width="2" stroke-linecap="round" stroke-linejoin="round"/>
<path d="M52.217 55.734C52.898 54.064 53.9627 52.5779 55.325 51.396C56.6872 50.2141 58.3087 49.3696 60.058 48.931C61.7029 48.5155 63.4195 48.4699 65.0841 48.7974C66.7488 49.1249 68.3201 49.8174 69.685 50.825" stroke="black" stroke-width="2" stroke-linecap="round" stroke-linejoin="round"/>
<rect x="42.4199" y="79.567" width="10" height="1" transform="rotate(-30 42.4199 79.567)" fill="black"/>
<rect x="42.9199" y="74.567" width="10" height="1" transform="rotate(30 42.9199 74.567)" fill="black"/>
<rect x="47.5" y="72.5" width="10" height="1" transform="rotate(90 47.5 72.5)" fill="black"/>
<rect x="82.4199" y="79.567" width="10" height="1" transform="rotate(-30 82.4199 79.567)" fill="black"/>
<rect x="82.9199" y="74.567" width="10" height="1" transform="rotate(30 82.9199 74.567)" fill="black"/>
<rect x="87.5" y="72.5" width="10" height="1" transform="rotate(90 87.5 72.5)" fill="black"/>
</svg>
